REM DIRINDEX 1\2,1\3,1\4,1\5
REM DIRNAME folder01,folder02,folder03,folder04,folder05
TITLE ""
FILE "090.mp3" MP3
  TRACK 01 AUDIO
    TITLE "0:"
    INDEX 01 00:00:00
  TRACK 02 AUDIO
    TITLE "2:cjc046_1877"
    INDEX 01 00:00:13
  TRACK 03 AUDIO
    TITLE "0:"
    INDEX 01 00:01:11
  TRACK 04 AUDIO
    TITLE "3:cjc046_1878"
    INDEX 01 00:01:32
  TRACK 05 AUDIO
    TITLE "0:"
    INDEX 01 00:02:34
  TRACK 06 AUDIO
    TITLE "4:cjc046_1879"
    INDEX 01 00:02:45
  TRACK 07 AUDIO
    TITLE "0:"
    INDEX 01 00:03:43
  TRACK 08 AUDIO
    TITLE "2:cjc046_1880"
    INDEX 01 00:04:54
  TRACK 09 AUDIO
    TITLE "0:"
    INDEX 01 00:05:73
  TRACK 10 AUDIO
    TITLE "3:cjc046_1881"
    INDEX 01 00:06:22
  TRACK 11 AUDIO
    TITLE "0:"
    INDEX 01 00:07:29
  TRACK 12 AUDIO
    TITLE "4:cjc046_1882"
    INDEX 01 00:07:43
  TRACK 13 AUDIO
    TITLE "0:"
    INDEX 01 00:08:60
  TRACK 14 AUDIO
    TITLE "2:cjc046_1883"
    INDEX 01 00:09:69
  TRACK 15 AUDIO
    TITLE "0:"
    INDEX 01 00:11:03
  TRACK 16 AUDIO
    TITLE "3:cjc046_1884"
    INDEX 01 00:11:23
  TRACK 17 AUDIO
    TITLE "0:"
    INDEX 01 00:12:36
  TRACK 18 AUDIO
    TITLE "4:cjc046_1885"
    INDEX 01 00:12:46
  TRACK 19 AUDIO
    TITLE "0:"
    INDEX 01 00:13:55
  TRACK 20 AUDIO
    TITLE "2:cjc046_1886"
    INDEX 01 00:14:62
  TRACK 21 AUDIO
    TITLE "0:"
    INDEX 01 00:15:64
  TRACK 22 AUDIO
    TITLE "3:cjc046_1887"
    INDEX 01 00:16:16
  TRACK 23 AUDIO
    TITLE "0:"
    INDEX 01 00:18:07
  TRACK 24 AUDIO
    TITLE "4:cjc046_1888"
    INDEX 01 00:18:23
  TRACK 25 AUDIO
    TITLE "0:"
    INDEX 01 00:19:24
  TRACK 26 AUDIO
    TITLE "2:cjc046_1889"
    INDEX 01 00:20:34
  TRACK 27 AUDIO
    TITLE "0:"
    INDEX 01 00:21:33
  TRACK 28 AUDIO
    TITLE "3:cjc046_1890"
    INDEX 01 00:21:55
  TRACK 29 AUDIO
    TITLE "0:"
    INDEX 01 00:22:60
  TRACK 30 AUDIO
    TITLE "4:cjc046_1891"
    INDEX 01 00:22:66
  TRACK 31 AUDIO
    TITLE "0:"
    INDEX 01 00:23:65
  TRACK 32 AUDIO
    TITLE "2:cjc046_1892"
    INDEX 01 00:24:69
  TRACK 33 AUDIO
    TITLE "0:"
    INDEX 01 00:26:13
  TRACK 34 AUDIO
    TITLE "3:cjc046_1893"
    INDEX 01 00:26:40
  TRACK 35 AUDIO
    TITLE "0:"
    INDEX 01 00:27:47
  TRACK 36 AUDIO
    TITLE "4:cjc046_1894"
    INDEX 01 00:27:59
  TRACK 37 AUDIO
    TITLE "0:"
    INDEX 01 00:29:03
  TRACK 38 AUDIO
    TITLE "2:cjc046_1895"
    INDEX 01 00:30:12
  TRACK 39 AUDIO
    TITLE "0:"
    INDEX 01 00:31:18
  TRACK 40 AUDIO
    TITLE "3:cjc046_1896"
    INDEX 01 00:31:43
  TRACK 41 AUDIO
    TITLE "0:"
    INDEX 01 00:32:54
  TRACK 42 AUDIO
    TITLE "4:cjc046_1897"
    INDEX 01 00:32:64
  TRACK 43 AUDIO
    TITLE "0:"
    INDEX 01 00:33:69
  TRACK 44 AUDIO
    TITLE "2:cjc046_1898"
    INDEX 01 00:35:06
  TRACK 45 AUDIO
    TITLE "0:"
    INDEX 01 00:36:03
  TRACK 46 AUDIO
    TITLE "3:cjc046_1899"
    INDEX 01 00:36:29
  TRACK 47 AUDIO
    TITLE "0:"
    INDEX 01 00:37:20
  TRACK 48 AUDIO
    TITLE "4:cjc046_1900"
    INDEX 01 00:37:30
  TRACK 49 AUDIO
    TITLE "0:"
    INDEX 01 00:38:26
  TRACK 50 AUDIO
    TITLE "2:cjc046_1901"
    INDEX 01 00:39:33
  TRACK 51 AUDIO
    TITLE "0:"
    INDEX 01 00:40:36
  TRACK 52 AUDIO
    TITLE "3:cjc046_1902"
    INDEX 01 00:40:60
  TRACK 53 AUDIO
    TITLE "0:"
    INDEX 01 00:42:02
  TRACK 54 AUDIO
    TITLE "4:cjc046_1903"
    INDEX 01 00:42:08
  TRACK 55 AUDIO
    TITLE "0:"
    INDEX 01 00:43:11
  TRACK 56 AUDIO
    TITLE "2:cjc046_1904"
    INDEX 01 00:44:18
  TRACK 57 AUDIO
    TITLE "0:"
    INDEX 01 00:45:26
  TRACK 58 AUDIO
    TITLE "3:cjc046_1905"
    INDEX 01 00:45:53
  TRACK 59 AUDIO
    TITLE "0:"
    INDEX 01 00:47:09
  TRACK 60 AUDIO
    TITLE "4:cjc046_1906"
    INDEX 01 00:47:25
  TRACK 61 AUDIO
    TITLE "0:"
    INDEX 01 00:48:32
  TRACK 62 AUDIO
    TITLE "2:cjc046_1907"
    INDEX 01 00:49:39
  TRACK 63 AUDIO
    TITLE "0:"
    INDEX 01 00:50:46
  TRACK 64 AUDIO
    TITLE "3:cjc046_1908"
    INDEX 01 00:50:74
  TRACK 65 AUDIO
    TITLE "0:"
    INDEX 01 00:52:22
  TRACK 66 AUDIO
    TITLE "4:cjc046_1909"
    INDEX 01 00:52:34
  TRACK 67 AUDIO
    TITLE "0:"
    INDEX 01 00:53:41
